<svg width="1302" height="919" viewBox="0 0 1302 919" fill="none" xmlns="http://www.w3.org/2000/svg">
<mask id="path-1-inside-1_114_37" fill="white">
<path d="M1084.97 415.697C1094.04 414.929 1100.79 406.951 1099.7 397.921C1086.73 291.172 1036.12 192.319 956.677 119.315C873.183 42.5896 763.925 0.00805895 650.532 1.14248e-06C537.139 -0.00805666 427.875 42.5579 344.371 119.272C264.917 192.264 214.294 291.11 201.311 397.858C200.213 406.887 206.968 414.866 216.031 415.635V415.635C225.095 416.404 233.033 409.672 234.157 400.646C246.425 302.124 293.281 210.937 366.656 143.53C444.082 72.4003 545.391 32.9329 650.53 32.9404C755.669 32.9479 856.972 72.4296 934.388 143.57C1007.75 210.988 1054.6 302.182 1066.85 400.705C1067.97 409.732 1075.91 416.465 1084.97 415.697V415.697Z"/>
</mask>
<path d="M1084.97 415.697C1094.04 414.929 1100.79 406.951 1099.7 397.921C1086.73 291.172 1036.12 192.319 956.677 119.315C873.183 42.5896 763.925 0.00805895 650.532 1.14248e-06C537.139 -0.00805666 427.875 42.5579 344.371 119.272C264.917 192.264 214.294 291.11 201.311 397.858C200.213 406.887 206.968 414.866 216.031 415.635V415.635C225.095 416.404 233.033 409.672 234.157 400.646C246.425 302.124 293.281 210.937 366.656 143.53C444.082 72.4003 545.391 32.9329 650.53 32.9404C755.669 32.9479 856.972 72.4296 934.388 143.57C1007.75 210.988 1054.6 302.182 1066.85 400.705C1067.97 409.732 1075.91 416.465 1084.97 415.697V415.697Z" stroke="white" stroke-width="62" stroke-linejoin="round" mask="url(#path-1-inside-1_114_37)"/>
<path d="M217 399H17" stroke="white" stroke-width="34" stroke-linecap="round"/>
<mask id="path-3-inside-2_114_37" fill="white">
<path d="M215.44 495.562C206.364 496.168 199.467 504.025 200.403 513.073C211.629 621.592 261.73 722.62 341.759 797.31C425.808 875.752 536.565 919.261 651.533 918.999C766.501 918.736 877.058 874.722 960.749 795.897C1040.44 720.842 1090.07 619.586 1100.81 511.018C1101.7 501.965 1094.77 494.14 1085.69 493.576V493.576C1076.61 493.011 1068.83 499.92 1067.9 508.97C1057.71 609.184 1011.76 702.602 938.164 771.918C860.565 845.005 758.056 885.815 651.458 886.059C544.859 886.302 442.165 845.96 364.234 773.228C290.324 704.249 243.944 611.041 233.293 510.875C232.332 501.83 224.516 494.956 215.44 495.562V495.562Z"/>
</mask>
<path d="M215.44 495.562C206.364 496.168 199.467 504.025 200.403 513.073C211.629 621.592 261.73 722.62 341.759 797.31C425.808 875.752 536.565 919.261 651.533 918.999C766.501 918.736 877.058 874.722 960.749 795.897C1040.44 720.842 1090.07 619.586 1100.81 511.018C1101.7 501.965 1094.77 494.14 1085.69 493.576V493.576C1076.61 493.011 1068.83 499.92 1067.9 508.97C1057.71 609.184 1011.76 702.602 938.164 771.918C860.565 845.005 758.056 885.815 651.458 886.059C544.859 886.302 442.165 845.96 364.234 773.228C290.324 704.249 243.944 611.041 233.293 510.875C232.332 501.83 224.516 494.956 215.44 495.562V495.562Z" stroke="white" stroke-width="62" stroke-linejoin="round" mask="url(#path-3-inside-2_114_37)"/>
<path d="M1085 510L1285 510" stroke="white" stroke-width="34" stroke-linecap="round"/>
<circle cx="650.5" cy="459.5" r="237.5" fill="white"/>
</svg>
